<?xml version="1.0" encoding="UTF-8"?>
<svg width="450" height="110" viewBox="0 0 450 110" xmlns="http://www.w3.org/2000/svg">
  <!-- Maple Leaf -->
  <path d="M50,55 C50,55 60,30 70,40 C80,50 70,70 70,70 C70,70 80,50 90,40 C100,30 110,55 110,55 C110,55 100,80 90,70 C80,60 70,70 70,70 C70,70 80,60 90,70 C100,80 110,55 110,55 C110,55 100,30 90,40 C80,50 70,70 70,70 C70,70 80,50 90,40 C100,30 110,55 110,55" 
        fill="#FFFFFF" stroke="#FFFFFF" stroke-width="2"/>
  
  <!-- Text -->
  <text x="140" y="70" font-family="Arial" font-size="20" font-weight="bold" fill="#FFFFFF">
    Kanada Kolay Vize
  </text>
</svg> 